<svg width="43" height="43" viewBox="0 0 43 43" fill="none" xmlns="http://www.w3.org/2000/svg">
<path d="M10.9618 33.4935V34.4189C10.9618 35.1534 10.7121 35.7704 10.2126 36.2699C9.71314 36.7694 9.08146 37.0191 8.31757 37.0191C7.58306 37.0191 6.95902 36.7617 6.44546 36.247C5.93071 35.7334 5.67334 35.1094 5.67334 34.3749V21.1537L9.37526 10.5768C9.55154 10.0479 9.86768 9.62192 10.3237 9.29874C10.7785 8.97556 11.285 8.81396 11.8432 8.81396H31.2342C31.7925 8.81396 32.2996 8.97556 32.7556 9.29874C33.2104 9.62192 33.5259 10.0479 33.7022 10.5768L37.4041 21.1537V34.4189C37.4041 35.1534 37.1544 35.7704 36.6549 36.2699C36.1554 36.7694 35.5238 37.0191 34.7599 37.0191C34.0254 37.0191 33.4013 36.7617 32.8878 36.247C32.373 35.7334 32.1156 35.1094 32.1156 34.3749V33.4935H10.9618ZM10.6092 17.6281H32.4682L30.6172 12.3396H12.4602L10.6092 17.6281ZM13.606 28.205C14.3405 28.205 14.9646 27.9476 15.4781 27.4329C15.9929 26.9193 16.2503 26.2953 16.2503 25.5608C16.2503 24.8263 15.9929 24.2022 15.4781 23.6886C14.9646 23.1739 14.3405 22.9165 13.606 22.9165C12.8715 22.9165 12.2475 23.1739 11.7339 23.6886C11.2192 24.2022 10.9618 24.8263 10.9618 25.5608C10.9618 26.2953 11.2192 26.9193 11.7339 27.4329C12.2475 27.9476 12.8715 28.205 13.606 28.205ZM29.4714 28.205C30.2059 28.205 30.83 27.9476 31.3435 27.4329C31.8583 26.9193 32.1156 26.2953 32.1156 25.5608C32.1156 24.8263 31.8583 24.2022 31.3435 23.6886C30.83 23.1739 30.2059 22.9165 29.4714 22.9165C28.7369 22.9165 28.1129 23.1739 27.5993 23.6886C27.0846 24.2022 26.8272 24.8263 26.8272 25.5608C26.8272 26.2953 27.0846 26.9193 27.5993 27.4329C28.1129 27.9476 28.7369 28.205 29.4714 28.205Z" fill="black"/>
</svg>
