<svg width="41" height="41" viewBox="0 0 41 41" fill="none" xmlns="http://www.w3.org/2000/svg">
<path d="M14.0884 5.53196L11.737 9.15856L14.0884 12.8183H14.0719L10.7765 17.9518L7.91163 16.4614L10.2631 12.8017L7.91163 9.15856L11.2236 4.02501L14.0884 5.53196ZM24.0243 5.3498L21.6729 9.00952L24.0243 12.6527L24.0078 12.6692L20.7124 17.7862L17.8475 16.2958L20.199 12.6527L17.8475 9.00952L21.1595 3.87598L24.0243 5.3498ZM34.043 5.3498L31.6584 9.00952L34.043 12.6527V12.6692L30.7311 17.7862L27.8331 16.2958L30.1846 12.6527L27.8331 9.00952L31.1451 3.87598L34.043 5.3498ZM4.23535 36.9956V23.7478C4.23535 22.8694 4.58429 22.027 5.2054 21.4059C5.82652 20.7847 6.66893 20.4358 7.54732 20.4358H34.043C34.9214 20.4358 35.7638 20.7847 36.385 21.4059C37.0061 22.027 37.355 22.8694 37.355 23.7478V36.9956H34.043V33.6837H7.54732V36.9956H4.23535ZM10.8593 23.7478C10.4201 23.7478 9.99888 23.9222 9.68833 24.2328C9.37777 24.5434 9.2033 24.9646 9.2033 25.4038V28.7157C9.2033 29.1549 9.37777 29.5761 9.68833 29.8867C9.99888 30.1972 10.4201 30.3717 10.8593 30.3717C11.2985 30.3717 11.7197 30.1972 12.0302 29.8867C12.3408 29.5761 12.5153 29.1549 12.5153 28.7157V25.4038C12.5153 24.9646 12.3408 24.5434 12.0302 24.2328C11.7197 23.9222 11.2985 23.7478 10.8593 23.7478ZM17.4832 23.7478C17.044 23.7478 16.6228 23.9222 16.3123 24.2328C16.0017 24.5434 15.8272 24.9646 15.8272 25.4038V28.7157C15.8272 29.1549 16.0017 29.5761 16.3123 29.8867C16.6228 30.1972 17.044 30.3717 17.4832 30.3717C17.9224 30.3717 18.3436 30.1972 18.6542 29.8867C18.9647 29.5761 19.1392 29.1549 19.1392 28.7157V25.4038C19.1392 24.9646 18.9647 24.5434 18.6542 24.2328C18.3436 23.9222 17.9224 23.7478 17.4832 23.7478ZM24.1071 23.7478C23.668 23.7478 23.2467 23.9222 22.9362 24.2328C22.6256 24.5434 22.4512 24.9646 22.4512 25.4038V28.7157C22.4512 29.1549 22.6256 29.5761 22.9362 29.8867C23.2467 30.1972 23.668 30.3717 24.1071 30.3717C24.5463 30.3717 24.9675 30.1972 25.2781 29.8867C25.5887 29.5761 25.7631 29.1549 25.7631 28.7157V25.4038C25.7631 24.9646 25.5887 24.5434 25.2781 24.2328C24.9675 23.9222 24.5463 23.7478 24.1071 23.7478ZM30.7311 23.7478C30.2919 23.7478 29.8707 23.9222 29.5601 24.2328C29.2496 24.5434 29.0751 24.9646 29.0751 25.4038V28.7157C29.0751 29.1549 29.2496 29.5761 29.5601 29.8867C29.8707 30.1972 30.2919 30.3717 30.7311 30.3717C31.1703 30.3717 31.5915 30.1972 31.902 29.8867C32.2126 29.5761 32.3871 29.1549 32.3871 28.7157V25.4038C32.3871 24.9646 32.2126 24.5434 31.902 24.2328C31.5915 23.9222 31.1703 23.7478 30.7311 23.7478Z" fill="black"/>
</svg>
