<svg width="39" height="38" viewBox="0 0 39 38" fill="none" xmlns="http://www.w3.org/2000/svg">
<path d="M8.69431 25.4529H11.7926C11.7926 24.6008 11.489 23.8712 10.8817 23.2639C10.2755 22.6577 9.54634 22.3546 8.69431 22.3546V25.4529ZM14.1938 25.4529H16.44C16.44 23.3099 15.6846 21.4829 14.1736 19.972C12.6637 18.4621 10.8373 17.7071 8.69431 17.7071V19.9534C10.2176 19.9534 11.5153 20.4894 12.5873 21.5614C13.6583 22.6324 14.1938 23.9295 14.1938 25.4529ZM18.8412 25.4529H21.0875C21.0875 23.7488 20.7647 22.1413 20.1193 20.6304C19.4738 19.1205 18.5897 17.8037 17.4671 16.68C16.3435 15.5574 15.0267 14.6734 13.5168 14.0279C12.0059 13.3824 10.3984 13.0597 8.69431 13.0597V15.306C11.5086 15.306 13.9036 16.2933 15.8792 18.2679C17.8539 20.2436 18.8412 22.6386 18.8412 25.4529ZM13.3417 33.1986V30.1003H7.14517C6.29314 30.1003 5.564 29.7972 4.95777 29.1909C4.35051 28.5837 4.04688 27.854 4.04688 27.002V8.41226C4.04688 7.56023 4.35051 6.83058 4.95777 6.22331C5.564 5.61708 6.29314 5.31396 7.14517 5.31396H31.9315C32.7835 5.31396 33.5132 5.61708 34.1204 6.22331C34.7267 6.83058 35.0298 7.56023 35.0298 8.41226V27.002C35.0298 27.854 34.7267 28.5837 34.1204 29.1909C33.5132 29.7972 32.7835 30.1003 31.9315 30.1003H25.7349V33.1986H13.3417ZM7.14517 27.002H31.9315V8.41226H7.14517V27.002ZM7.14517 27.002V8.41226V27.002Z" fill="black"/>
</svg>
