<svg width="33" height="33" viewBox="0 0 33 33" fill="none" xmlns="http://www.w3.org/2000/svg">
<path d="M0.153809 23.1839V7.15828C0.153809 5.66818 0.613211 4.48003 1.53201 3.59384C2.44948 2.70878 3.65942 2.03401 5.16182 1.56955C6.66423 1.10621 8.37496 0.796947 10.294 0.641751C12.2144 0.48768 14.1762 0.410645 16.1794 0.410645C18.383 0.410645 20.4616 0.48768 22.4154 0.641751C24.3679 0.796947 26.0706 1.10621 27.5236 1.56955C28.9753 2.03401 30.1184 2.70878 30.9531 3.59384C31.7878 4.48003 32.2051 5.66818 32.2051 7.15828V23.1839C32.2051 24.8427 31.5293 26.2417 30.1778 27.381C28.825 28.5191 27.1637 29.0881 25.1939 29.0881L28.1987 31.6185V32.4619H24.1923L20.1859 29.0881H12.173L8.16663 32.4619H4.16022V31.6185L7.16503 29.0881C5.19521 29.0881 3.53455 28.5191 2.18306 27.381C0.830224 26.2417 0.153809 24.8427 0.153809 23.1839ZM4.16022 13.9059H14.1762V8.84519H4.16022V13.9059ZM18.1827 13.9059H28.1987V8.84519H18.1827V13.9059ZM9.16823 24.0274C10.0363 24.0274 10.7541 23.7884 11.3217 23.3104C11.8893 22.8325 12.173 22.228 12.173 21.497C12.173 20.766 11.8893 20.1615 11.3217 19.6836C10.7541 19.2056 10.0363 18.9667 9.16823 18.9667C8.30018 18.9667 7.58236 19.2056 7.01479 19.6836C6.44721 20.1615 6.16342 20.766 6.16342 21.497C6.16342 22.228 6.44721 22.8325 7.01479 23.3104C7.58236 23.7884 8.30018 24.0274 9.16823 24.0274ZM23.1907 24.0274C24.0587 24.0274 24.7765 23.7884 25.3441 23.3104C25.9117 22.8325 26.1955 22.228 26.1955 21.497C26.1955 20.766 25.9117 20.1615 25.3441 19.6836C24.7765 19.2056 24.0587 18.9667 23.1907 18.9667C22.3226 18.9667 21.6048 19.2056 21.0372 19.6836C20.4696 20.1615 20.1859 20.766 20.1859 21.497C20.1859 22.228 20.4696 22.8325 21.0372 23.3104C21.6048 23.7884 22.3226 24.0274 23.1907 24.0274Z" fill="black"/>
</svg>
